<svg width="32" height="32" viewBox="0 0 32 32" fill="none" xmlns="http://www.w3.org/2000/svg">
<path d="M27.1151 10.3135L25.5296 9.34816C27.4383 5.77165 20.7439 2.83848 22.8909 0.471292C23.1653 0.167843 23.6259 0.000163072 24.1706 0.00697462C26.5239 0.00581086 30.3621 3.04848 27.1151 10.3135Z" fill="url(#paint0_linear)"/>
<path d="M21.8089 7.93959L20.3824 8.17764C19.9505 3.75633 13.0508 4.00066 13.7293 1.55635C13.9395 0.793463 14.9793 0.198023 16.2553 0.196045C18.46 0.197292 21.3561 2.00287 21.8089 7.93959Z" fill="url(#paint1_linear)"/>
<path d="M24.1914 28.1863C14.8628 36.6783 3.79352 29.4192 3.32241 20.7916C3.03877 15.5678 10.5267 14.1404 14.3758 10.935C18.6355 7.37849 20.1741 6.40853 21.6812 6.33972C21.8206 6.31176 21.9627 6.31509 22.0879 6.30414C30.0486 6.31694 33.3719 19.8018 24.1914 28.1863Z" fill="url(#paint2_linear)"/>
<path d="M12.8734 11.8872C12.6646 13.2169 13.2172 14.4085 14.1081 14.5484C14.9987 14.6881 15.8901 13.7235 16.0988 12.3938C16.3076 11.0639 15.755 9.87254 14.8642 9.73266C13.9735 9.59278 13.0822 10.5575 12.8734 11.8872Z" fill="#2D2D5F"/>
<path d="M20.3745 13.9555C20.1528 15.3676 20.7396 16.6329 21.6856 16.7815C22.6315 16.93 23.578 15.9055 23.7997 14.4935C24.0214 13.0812 23.4346 11.8161 22.4886 11.6675C21.5428 11.519 20.5962 12.5434 20.3745 13.9555Z" fill="#2D2D5F"/>
<path d="M2.43395 19.7819C2.43395 22.5947 5.04578 24.8747 8.2677 24.8747C11.4896 24.8747 14.1014 22.5947 14.1014 19.7819C14.1014 16.9691 11.4896 14.689 8.2677 14.689C5.04578 14.689 2.43395 16.9691 2.43395 19.7819Z" fill="#2D2D5F"/>
<defs>
<linearGradient id="paint0_linear" x1="29.2193" y1="7.80905" x2="21.8895" y2="1.6586" gradientUnits="userSpaceOnUse">
<stop stop-color="#0185E9"/>
<stop offset="1" stop-color="#0192FF"/>
</linearGradient>
<linearGradient id="paint1_linear" x1="22.5369" y1="7.06998" x2="14.5669" y2="0.382427" gradientUnits="userSpaceOnUse">
<stop stop-color="#0185E9"/>
<stop offset="1" stop-color="#0192FF"/>
</linearGradient>
<linearGradient id="paint2_linear" x1="26.1052" y1="26.1474" x2="9.09494" y2="11.8741" gradientUnits="userSpaceOnUse">
<stop stop-color="#0185E9"/>
<stop offset="1" stop-color="#0192FF"/>
</linearGradient>
</defs>
</svg>
